<svg xmlns="http://www.w3.org/2000/svg" xmlns:xlink="http://www.w3.org/1999/xlink" viewBox="0 0 48 48"><style>:root&gt;svg{display:none}:root&gt;svg:target{display:block}</style><svg xmlns="http://www.w3.org/2000/svg" viewBox="0 0 48 48" id="facebook"><path d="M24 4C12.972 4 4 12.972 4 24s8.972 20 20 20 20-8.972 20-20S35.028 4 24 4zm0 3c9.407 0 17 7.593 17 17 0 8.38-6.033 15.306-14 16.72V29h3.625a1 1 0 00.992-.877l.375-3A1 1 0 0031 24h-4v-3.5c0-1.103.897-2 2-2h2a1 1 0 001-1v-3.375a1 1 0 00-.91-.996c-.06-.005-1.47-.129-3.256-.129C23.427 13 21 15.616 21 20.367V24h-4a1 1 0 00-1 1v3a1 1 0 001 1h4v11.72C13.033 39.307 7 32.38 7 24c0-9.407 7.593-17 17-17z"/></svg><svg xmlns="http://www.w3.org/2000/svg" viewBox="0 0 48 48" id="github"><path d="M24 4C12.972 4 4 12.972 4 24s8.972 20 20 20 20-8.972 20-20S35.028 4 24 4zm0 3c9.407 0 17 7.593 17 17a16.976 16.976 0 01-12 16.252v-5.115c0-1.91-1.1-3.548-2.691-4.364a10 8 0 006.128-12.052c.444-1.366.94-3.76-.238-5.645-2.27 0-3.734 1.556-4.433 2.524A10 8 0 0024 15a10 8 0 00-3.77.594c-.7-.968-2.164-2.518-4.43-2.518-1.35 2.163-.515 4.489-.068 5.438a10 8 0 005.95 12.265c-1.306.673-2.285 1.895-2.584 3.377h-1.315c-1.297 0-1.8-.527-2.502-1.416-.692-.889-1.436-1.486-2.33-1.734-.482-.051-.807.315-.387.64 1.42.966 1.517 2.548 2.086 3.583.518.932 1.58 1.771 2.78 1.771H19v3.252A16.976 16.976 0 017 24c0-9.407 7.593-17 17-17z"/></svg><svg xmlns="http://www.w3.org/2000/svg" viewBox="0 0 48 48" id="instagram"><path d="M16.5 5C10.166 5 5 10.166 5 16.5v15C5 37.833 10.166 43 16.5 43h15C37.833 43 43 37.833 43 31.5v-15C43 10.166 37.833 5 31.5 5h-15zm0 3h15c4.711 0 8.5 3.788 8.5 8.5v15c0 4.711-3.789 8.5-8.5 8.5h-15A8.478 8.478 0 018 31.5v-15C8 11.788 11.788 8 16.5 8zM34 12a2 2 0 10-.001 3.999A2 2 0 0034 12zm-10 2c-5.505 0-10 4.495-10 10s4.495 10 10 10 10-4.495 10-10-4.495-10-10-10zm0 3c3.883 0 7 3.117 7 7s-3.117 7-7 7-7-3.117-7-7 3.117-7 7-7z"/></svg><svg xmlns="http://www.w3.org/2000/svg" viewBox="0 0 48 48" id="linkedin"><path d="M11.5 6C8.48 6 6 8.48 6 11.5v25c0 3.02 2.48 5.5 5.5 5.5h25c3.02 0 5.5-2.48 5.5-5.5v-25C42 8.48 39.52 6 36.5 6h-25zm0 3h25c1.398 0 2.5 1.102 2.5 2.5v25c0 1.398-1.102 2.5-2.5 2.5h-25A2.478 2.478 0 019 36.5v-25C9 10.102 10.102 9 11.5 9zm4 4a2.5 2.5 0 000 5 2.5 2.5 0 000-5zM14 20a1 1 0 00-1 1v13a1 1 0 001 1h3a1 1 0 001-1V21a1 1 0 00-1-1h-3zm7 0a1 1 0 00-1 1v13a1 1 0 001 1h3a1 1 0 001-1v-7.5c0-1.379 1.121-2.5 2.5-2.5s2.5 1.121 2.5 2.5V34a1 1 0 001 1h3a1 1 0 001-1v-8c0-3.309-2.691-6-6-6a5.965 5.965 0 00-4 1.541V21a1 1 0 00-1-1h-3z"/></svg><svg xmlns="http://www.w3.org/2000/svg" viewBox="0 0 48 48" id="odnoklassniki"><path d="M24 2c-6.057 0-11 4.943-11 11s4.943 11 11 11 11-4.943 11-11S30.057 2 24 2zm0 3c4.436 0 8 3.564 8 8s-3.564 8-8 8-8-3.564-8-8 3.564-8 8-8zm0 3c-1.542 0-2.888.632-3.746 1.598C19.396 10.563 19 11.792 19 13c0 1.208.396 2.437 1.254 3.402C21.112 17.368 22.458 18 24 18c1.542 0 2.888-.632 3.746-1.598C28.604 15.437 29 14.208 29 13c0-1.208-.396-2.437-1.254-3.402C26.888 8.632 25.542 8 24 8zm0 3c.792 0 1.195.243 1.504.59.308.347.496.868.496 1.41 0 .542-.188 1.063-.496 1.41-.309.347-.712.59-1.504.59s-1.195-.243-1.504-.59C22.188 14.063 22 13.542 22 13c0-.542.188-1.063.496-1.41.309-.347.712-.59 1.504-.59zm-9.012 12.55a4.519 4.519 0 00-3.845 2.17c-1.274 2.115-.58 4.905 1.533 6.178 1.285.774 2.655 1.353 4.056 1.842l-4.55 4.715a1.5 1.5 0 00-.041.045c-1.64 1.844-1.472 4.715.373 6.354 1.844 1.638 4.712 1.47 6.351-.374l-.04.045L24 39.166l5.178 5.36-.041-.046a4.505 4.505 0 006.351.375 1.5 1.5 0 000-.001c1.844-1.64 2.013-4.508.373-6.352a1.5 1.5 0 00-.04-.047l-4.555-4.713c1.402-.49 2.773-1.07 4.058-1.844 2.113-1.274 2.807-4.063 1.533-6.177-1.272-2.113-4.062-2.806-6.177-1.534-3.992 2.405-9.37 2.405-13.362 0a4.436 4.436 0 00-2.33-.636zm-.072 2.987c.287-.013.583.057.855.22 4.991 3.006 11.465 3.006 16.456 0a1.48 1.48 0 012.06.513 1.48 1.48 0 01-.512 2.058 18.89 18.89 0 01-5.609 2.242 1.5 1.5 0 00-.75 2.506l6.207 6.426a1.475 1.475 0 01-.127 2.11c-.293.26-.64.378-.996.378a1.47 1.47 0 01-1.121-.502 1.5 1.5 0 00-.043-.047l-6.258-6.476a1.5 1.5 0 00-2.156 0l-6.256 6.476a1.5 1.5 0 00-.041.045 1.48 1.48 0 01-2.12.125 1.478 1.478 0 01-.122-2.117l6.199-6.42a1.5 1.5 0 00-.75-2.506 18.896 18.896 0 01-5.61-2.24 1.478 1.478 0 01-.511-2.058c.218-.363.552-.6.922-.692a1.46 1.46 0 01.283-.04z"/></svg><svg xmlns="http://www.w3.org/2000/svg" viewBox="0 0 48 48" id="pinterest"><path d="M24 4C12.972 4 4 12.972 4 24s8.972 20 20 20 20-8.972 20-20S35.028 4 24 4zm0 3c9.407 0 17 7.593 17 17s-7.593 17-17 17c-1.433 0-2.818-.195-4.146-.527.48-.976.802-1.938 1.076-2.944l1.03-4.068C23.04 34.48 24.56 35 26.5 35c5.24 0 9.5-5.27 9.5-11.75C36 16.84 30.84 12 24 12c-6.62 0-12 5.05-12 11.25 0 2.98 1.15 5.69 3.17 7.63.24.23.65.1.73-.22l.56-2.33c.06-.24 0-.49-.14-.7-.72-1.02-1.32-2.44-1.32-4.38C15 18.7 19.04 15 24 15c.82 0 8 .24 8 8.5 0 4.09-1.88 8.5-6 8.5-1.04-.07-1.78-.41-2.21-.96-.74-.98-.56-2.64-.34-3.51l.77-3.02c.2-.8.28-1.48.28-2.06 0-1.95-1.18-2.95-2.5-2.95-1.78 0-3 1.89-3 3.78 0 1.03.16 2.13.5 3.11l-2.27 9.42s-.23.61-.23 2.61c0 .201.035.73.05 1.09C11.125 36.857 7 30.927 7 24c0-9.407 7.593-17 17-17z"/></svg><svg xmlns="http://www.w3.org/2000/svg" viewBox="0 0 48 48" id="reddit"><path d="M26.982 4a1.5 1.5 0 00-1.45 1.193l-2.264 10.864c-4.762.134-9.043 1.547-12.313 3.843C10.075 19.383 9.1 19 8 19c-3.296 0-6 2.704-6 6 0 2.2 1.238 4.069 3.016 5.107.041 3.975 2.31 7.505 5.738 9.954C14.214 42.532 18.878 44 24 44s9.786-1.468 13.246-3.94c3.429-2.448 5.697-5.978 5.738-9.953C44.762 29.07 46 27.2 46 25c0-3.296-2.704-6-6-6-1.1 0-2.075.383-2.955.9-2.902-2.037-6.606-3.352-10.736-3.722l1.859-8.928 5.959 1.135C34.522 9.885 35.877 11 37.5 11c1.93 0 3.5-1.57 3.5-3.5S39.43 4 37.5 4a3.49 3.49 0 00-2.814 1.438l-7.405-1.41A1.5 1.5 0 0026.982 4zM24 19c4.86 0 9.182 1.533 12.074 3.834a1.5 1.5 0 001.936-.057A2.947 2.947 0 0140 22c1.674 0 3 1.326 3 3 0 1.327-.852 2.417-2.04 2.822a1.5 1.5 0 00-1.009 1.55c.026.29.049.497.049.628 0 2.885-1.625 5.567-4.498 7.62C32.629 39.67 28.543 41 24 41c-4.543 0-8.629-1.329-11.502-3.38C9.625 35.566 8 32.884 8 30c0-.131.023-.337.049-.629a1.5 1.5 0 00-1.01-1.549C5.852 27.417 5 26.327 5 25c0-1.674 1.326-3 3-3 .765 0 1.445.29 1.99.777a1.5 1.5 0 001.936.057C14.818 20.533 19.14 19 24 19zm-7.5 4c-1.375 0-2.596.57-3.371 1.441C12.354 25.313 12 26.417 12 27.5c0 1.083.354 2.187 1.129 3.059C13.904 31.43 15.125 32 16.5 32s2.596-.57 3.371-1.441C20.646 29.687 21 28.583 21 27.5c0-1.083-.354-2.187-1.129-3.059C19.096 23.57 17.875 23 16.5 23zm15 0c-1.375 0-2.596.57-3.371 1.441C27.354 25.313 27 26.417 27 27.5c0 1.083.354 2.187 1.129 3.059C28.904 31.43 30.125 32 31.5 32s2.596-.57 3.371-1.441C35.646 29.687 36 28.583 36 27.5c0-1.083-.354-2.187-1.129-3.059C34.096 23.57 32.875 23 31.5 23zm-15 3c.625 0 .904.18 1.129.434.225.253.371.65.371 1.066 0 .417-.146.813-.371 1.066-.225.254-.504.434-1.129.434s-.904-.18-1.129-.434c-.225-.253-.371-.65-.371-1.066 0-.417.146-.813.371-1.066.225-.254.504-.434 1.129-.434zm15 0c.625 0 .904.18 1.129.434.225.253.371.65.371 1.066 0 .417-.146.813-.371 1.066-.225.254-.504.434-1.129.434s-.904-.18-1.129-.434c-.225-.253-.371-.65-.371-1.066 0-.417.146-.813.371-1.066.225-.254.504-.434 1.129-.434zm-1.014 7.979a1.5 1.5 0 00-1.047.46s-.262.29-1.14.704c-.878.413-2.271.855-4.299.855-2.028 0-3.42-.442-4.299-.855-.878-.413-1.14-.704-1.14-.704a1.5 1.5 0 00-1.077-.455 1.5 1.5 0 00-1.045 2.577s.738.71 1.985 1.296c1.247.587 3.104 1.141 5.576 1.141 2.472 0 4.33-.554 5.576-1.14 1.247-.587 1.985-1.297 1.985-1.297a1.5 1.5 0 00-1.075-2.582z"/></svg><svg xmlns="http://www.w3.org/2000/svg" viewBox="0 0 48 48" id="stackOverflow"><path d="M29.164 5.01a1.5 1.5 0 00-1.201 2.44l10.465 13.396a1.5 1.5 0 002.365-1.848L30.326 5.602a1.5 1.5 0 00-1.162-.592zm-5.777 5.636a1.5 1.5 0 00-.92 2.678l13.213 10.7a1.5 1.5 0 101.886-2.333l-13.21-10.697a1.5 1.5 0 00-.97-.348zm-4.362 6.784a1.5 1.5 0 00-.59 2.857l15.28 7.451a1.5 1.5 0 101.314-2.697L19.75 17.59a1.5 1.5 0 00-.725-.16zm-2.574 7.58a1.5 1.5 0 00-.379 2.965l16.565 3.824a1.5 1.5 0 10.674-2.922l-16.563-3.824a1.5 1.5 0 00-.297-.043zm-7.974 4.969A1.5 1.5 0 007 31.5v8c0 1.915 1.585 3.5 3.5 3.5h27c1.915 0 3.5-1.585 3.5-3.5v-8a1.5 1.5 0 10-3 0v8c0 .295-.205.5-.5.5h-27a.478.478 0 01-.5-.5v-8a1.5 1.5 0 00-1.523-1.521zM15.5 33a1.5 1.5 0 100 3h17a1.5 1.5 0 100-3h-17z"/></svg><svg xmlns="http://www.w3.org/2000/svg" viewBox="1 -2 32 32" id="telegram"><path d="M25.154 3.984a2.718 2.718 0 00-.894.217c-.25.1-1.204.51-2.707 1.154-1.505.646-3.497 1.5-5.621 2.415-4.25 1.827-9.028 3.884-11.475 4.937-.092.04-.413.142-.754.408-.34.266-.703.818-.703 1.432 0 .495.236.987.533 1.281.297.294.612.44.881.549l4.58 1.873c.202.617 1.298 3.973 1.553 4.795.168.543.327.883.535 1.152.104.135.225.253.371.346.059.037.123.066.188.092l.004.002c.014.006.027.016.043.021.028.01.047.011.085.02a1.5 1.5 0 00.444.08c.585 0 .943-.322.943-.322l.022-.016 3.01-2.604 3.65 3.454c.051.072.53.73 1.588.73.627 0 1.125-.315 1.445-.65.32-.336.519-.688.604-1.131v-.002c.079-.419 3.443-17.69 3.443-17.69l-.006.024c.098-.45.124-.868.016-1.281a1.748 1.748 0 00-.75-1.022 1.798 1.798 0 00-1.028-.264zm-.187 2.09c-.005.03.003.015-.004.049l-.002.012-.002.011s-3.323 17.05-3.445 17.7c.009-.05-.032.048-.075.107a1.646 1.646 0 00-.181-.094l-.02-.021-4.986-4.717-3.525 3.047 1.048-4.2s6.557-6.786 6.952-7.18c.318-.317.384-.427.384-.536 0-.146-.076-.252-.246-.252-.153 0-.359.149-.469.219-1.433.913-7.724 4.58-10.544 6.22-.449-.183-3.562-1.458-4.618-1.888l.014-.006 11.473-4.938 5.62-2.414c1.48-.634 2.51-1.071 2.626-1.119z"/></svg><svg xmlns="http://www.w3.org/2000/svg" viewBox="0 0 48 48" id="tiktok"><path d="M11.5 6C8.48 6 6 8.48 6 11.5v25c0 3.02 2.48 5.5 5.5 5.5h25c3.02 0 5.5-2.48 5.5-5.5v-25C42 8.48 39.52 6 36.5 6h-25zm0 3h25c1.398 0 2.5 1.102 2.5 2.5v25c0 1.398-1.102 2.5-2.5 2.5h-25A2.478 2.478 0 019 36.5v-25C9 10.102 10.102 9 11.5 9zm14.936 4.023A1.5 1.5 0 0025 14.5V28c0 2.228-1.772 4-4 4-2.228 0-4-1.772-4-4 0-2.228 1.772-4 4-4a1.5 1.5 0 100-3c-3.848 0-7 3.152-7 7s3.152 7 7 7 7-3.152 7-7v-7.664c1.268.981 2.782 1.664 4.5 1.664a1.5 1.5 0 100-3 4.477 4.477 0 01-4.5-4.5 1.5 1.5 0 00-1.564-1.477z"/></svg><svg xmlns="http://www.w3.org/2000/svg" viewBox="0 0 48 48" id="twitter"><path d="M32 6c-5.431 0-9.84 4.389-9.957 9.793-4.802-.576-7.93-2.371-9.848-4.14-2.127-1.963-2.8-3.706-2.8-3.706A1.5 1.5 0 006.8 7.6S5 10 5 13.5c0 2.001.632 3.482 1.385 4.736a6.461 6.461 0 00-.215-.078 1.5 1.5 0 00-2.164 1.479s.577 4.22 4.545 7.304l-.414.104a1.5 1.5 0 00-.94 2.2s.673 1.137 2.082 2.335c.836.71 2.063 1.443 3.51 2.121C11.012 34.351 8.363 35 4.5 35a1.5 1.5 0 00-1.129 2.488s1.146 1.263 3.412 2.362C9.05 40.948 12.54 42 17.5 42c8.72 0 14.985-4.183 18.895-9.484C40.305 27.214 42 20.86 42 16c0-.308-.02-.613-.047-.914 2.111-2.034 2.904-3.564 2.942-3.639a1 1 0 00-1.313-1.355l-.162.074-.418.191a8.797 8.797 0 00.951-2.06 1 1 0 00-1.473-1.152c-1.222.742-2.393 1.262-3.613 1.61A9.954 9.954 0 0032 6zm0 3c3.883 0 7 3.117 7 7 0 4.139-1.554 10.036-5.02 14.734C30.515 35.433 25.28 39 17.5 39c-3.765 0-6.27-.681-8.146-1.418 1.965-.305 3.658-.713 4.875-1.184 2.11-.816 3.248-1.76 3.248-1.76a1.5 1.5 0 00-.614-2.593c-2.722-.68-4.469-1.782-5.564-2.7l1.564-.39a1.5 1.5 0 00.176-2.855c-3.245-1.249-4.608-3.014-5.305-4.493.848.176 1.638.393 2.766.393a1.5 1.5 0 00.67-2.842S8 17.7 8 13.5c0-.754.209-1.232.361-1.803.524.703.955 1.382 1.8 2.16 2.574 2.375 6.83 4.796 13.259 5.141A1.5 1.5 0 0025 17.5V16c0-3.883 3.117-7 7-7z"/></svg><svg xmlns="http://www.w3.org/2000/svg" viewBox="0 0 48 48" id="vkontakte"><path d="M5.436 10.957c-2.242 0-3.949 2.204-3.33 4.371 1.609 5.649 3.995 11.18 7.556 15.53 3.561 4.349 8.378 7.501 14.537 8.126 2.05.208 3.819-1.463 3.819-3.49v-4.047c0-.252.172-.432.369-.437l.084-.002c.707 0 2.16.886 3.437 2.263 1.277 1.378 2.406 3.083 2.95 4.028v.002a3.438 3.438 0 002.978 1.71h4.873c2.427.003 4.051-2.74 2.863-4.863-1.864-3.335-5.585-6.634-7.445-8.279 3.409-3.743 5.668-7.822 6.67-10.527.756-2.044-.803-4.344-3-4.344h-3.479c-1.512 0-2.921.737-3.498 1.916-2.707 5.548-5.12 7.585-6.82 9.053v-7.528c0-1.877-1.558-3.426-3.43-3.43L18.48 11c-1.94-.002-3.143 2.393-1.981 3.947l1.176 1.574.002.004c.201.267.308.586.308.914v.002l.024 6.278c-2.423-2.556-5.055-7.968-5.85-10.383v-.002a3.465 3.465 0 00-3.271-2.367h-.002l-3.447-.01h-.002zm0 3l3.443.01a.43.43 0 01.43.304c.986 3 3.577 8.714 6.863 11.915.853.83 2.105 1 3.076.605.97-.394 1.762-1.416 1.762-2.615v-.002l-.026-6.735c0-.98-.32-1.934-.91-2.716l-.002-.004-.537-.717 5.03.008c.262 0 .435.171.435.43v7.603c0 2.435 3.066 3.834 4.91 2.242h.002c1.69-1.46 4.68-4.065 7.604-10.055.067-.138.008-.232.802-.232h3.479c.202 0 .262.096.185.303-.85 2.298-3.021 6.306-6.24 9.773-.992 1.07-.951 2.835.17 3.828 1.758 1.555 5.595 5.124 7.041 7.71.132.236.033.4-.242.4h-4.875a.427.427 0 01-.379-.21c-.65-1.129-1.841-2.944-3.348-4.57-1.506-1.625-3.3-3.224-5.638-3.224-.067 0-.12 0-.162.002h-.006c-1.862.052-3.285 1.632-3.285 3.437v4.047c0 .311-.24.534-.516.506-5.324-.54-9.336-3.156-12.52-7.043C8.8 25.07 6.526 19.895 4.99 14.506c-.086-.301.099-.549.446-.549z"/></svg><svg xmlns="http://www.w3.org/2000/svg" viewBox="0 0 48 48" id="youtube"><path d="M23.857 8.5c-6.352 0-12.255.453-15.623 1.156a1.5 1.5 0 00-.021.006c-2.538.569-4.927 2.386-5.43 5.233a1.5 1.5 0 00-.002.011C2.395 17.2 2 20.191 2 24.5c0 4.301.396 7.212.885 9.627.515 2.762 2.85 4.635 5.426 5.21a1.5 1.5 0 00.037.01c3.515.693 9.25 1.153 15.603 1.153s12.092-.46 15.608-1.152a1.5 1.5 0 00.037-.01c2.537-.569 4.926-2.386 5.43-5.233a1.5 1.5 0 00.003-.021c.38-2.34.874-5.328.971-9.645a1.5 1.5 0 000-.033c0-4.318-.494-7.327-.977-9.71-.51-2.769-2.848-4.647-5.427-5.223a1.5 1.5 0 00-.12-.022c-3.43-.482-9.265-.951-15.619-.951zm0 3c6.16 0 11.87.461 15.11.912 1.592.366 2.858 1.479 3.107 2.828a1.5 1.5 0 00.004.026c.465 2.296.918 5.027.92 9.119-.093 4.105-.547 6.86-.928 9.2-.26 1.46-1.478 2.45-3.117 2.821-3.148.618-8.81 1.094-15.002 1.094s-11.853-.478-15-1.096c-1.598-.363-2.87-1.479-3.119-2.832a1.5 1.5 0 00-.006-.025C5.366 31.277 5 28.629 5 24.5c0-4.121.365-6.878.736-9.082.259-1.462 1.48-2.455 3.123-2.826 2.915-.608 8.801-1.092 14.998-1.092zm-3.396 4.523C18.668 16.082 17 17.525 17 19.486v9.03c0 2.614 2.966 4.31 5.238 3.027a1.5 1.5 0 000-.002l7.99-4.514c2.289-1.292 2.289-4.762 0-6.054l-7.99-4.514a3.37 3.37 0 00-1.777-.436zm.012 2.957c.09.005.188.034.289.09l7.99 4.516c.406.23.406.6 0 .83l-7.99 4.514c-.402.227-.762.015-.762-.414v-9.03c0-.214.09-.374.23-.453a.441.441 0 01.243-.053z"/></svg></svg>