<svg xmlns="http://www.w3.org/2000/svg" viewBox="0 0 48 48">
    <style>
        :root&amp;gt ;
        svg {
        display: none;
        }
        :root&amp;gt ;
        svg:target {
        display: block;
        }
    </style>
    <svg xmlns="http://www.w3.org/2000/svg" viewBox="0 0 48 48" id="github">
        <path d="M24 4C12.972 4 4 12.972 4 24s8.972 20 20 20 20-8.972 20-20S35.028 4 24 4zm0 3c9.407 0 17 7.593 17 17a16.976 16.976 0 01-12 16.252v-5.115c0-1.91-1.1-3.548-2.691-4.364a10 8 0 006.128-12.052c.444-1.366.94-3.76-.238-5.645-2.27 0-3.734 1.556-4.433 2.524A10 8 0 0024 15a10 8 0 00-3.77.594c-.7-.968-2.164-2.518-4.43-2.518-1.35 2.163-.515 4.489-.068 5.438a10 8 0 005.95 12.265c-1.306.673-2.285 1.895-2.584 3.377h-1.315c-1.297 0-1.8-.527-2.502-1.416-.692-.889-1.436-1.486-2.33-1.734-.482-.051-.807.315-.387.64 1.42.966 1.517 2.548 2.086 3.583.518.932 1.58 1.771 2.78 1.771H19v3.252A16.976 16.976 0 017 24c0-9.407 7.593-17 17-17z"/>
    </svg>
    <svg xmlns="http://www.w3.org/2000/svg" viewBox="1 -2 32 32" id="telegram">
        <path d="M25.154 3.984a2.718 2.718 0 00-.894.217c-.25.1-1.204.51-2.707 1.154-1.505.646-3.497 1.5-5.621 2.415-4.25 1.827-9.028 3.884-11.475 4.937-.092.04-.413.142-.754.408-.34.266-.703.818-.703 1.432 0 .495.236.987.533 1.281.297.294.612.44.881.549l4.58 1.873c.202.617 1.298 3.973 1.553 4.795.168.543.327.883.535 1.152.104.135.225.253.371.346.059.037.123.066.188.092l.004.002c.014.006.027.016.043.021.028.01.047.011.085.02a1.5 1.5 0 00.444.08c.585 0 .943-.322.943-.322l.022-.016 3.01-2.604 3.65 3.454c.051.072.53.73 1.588.73.627 0 1.125-.315 1.445-.65.32-.336.519-.688.604-1.131v-.002c.079-.419 3.443-17.69 3.443-17.69l-.006.024c.098-.45.124-.868.016-1.281a1.748 1.748 0 00-.75-1.022 1.798 1.798 0 00-1.028-.264zm-.187 2.09c-.005.03.003.015-.004.049l-.002.012-.002.011s-3.323 17.05-3.445 17.7c.009-.05-.032.048-.075.107a1.646 1.646 0 00-.181-.094l-.02-.021-4.986-4.717-3.525 3.047 1.048-4.2s6.557-6.786 6.952-7.18c.318-.317.384-.427.384-.536 0-.146-.076-.252-.246-.252-.153 0-.359.149-.469.219-1.433.913-7.724 4.58-10.544 6.22-.449-.183-3.562-1.458-4.618-1.888l.014-.006 11.473-4.938 5.62-2.414c1.48-.634 2.51-1.071 2.626-1.119z"/>
    </svg>
</svg>
